<svg viewBox="0 0 100 100" 
  xmlns="http://www.w3.org/2000/svg">
  <g fill="none" fill-rule="evenodd">
    <path d="M96 50c0 25.405-20.595 46-46 46S4 75.405 4 50 24.595 4 50 4s46 20.595 46 46" fill="#3BAC31"></path>
    <path d="M43.458 77.6s-2.965 2.453-7.462 1.431c-4.498-1.022-6.543-3.68-6.543-3.68s3.067-1.942 7.003-1.329c3.935.613 7.002 3.578 7.002 3.578" fill="#FFF"></path>
    <path d="M43.458 77.6s.476-3.818-2.802-7.063c-3.279-3.244-6.619-3.54-6.619-3.54s.01 3.63 2.641 6.62c2.632 2.99 6.78 3.983 6.78 3.983M31.665 72.14s-3.21 1.393-6.88-.638C21.113 69.47 20 66.632 20 66.632s3.17-.921 6.453.61c3.283 1.533 5.211 4.899 5.211 4.899" fill="#FFF"></path>
    <path d="M31.665 72.14s1.383-3.214-.66-6.878c-2.042-3.664-4.885-4.769-4.885-4.769s-.91 3.174.631 6.452c1.542 3.278 4.914 5.196 4.914 5.196M21.764 63.38s-3.158.033-5.497-2.943C13.93 57.46 14 54.71 14 54.71s2.959.346 5.15 2.771c2.192 2.425 2.615 5.9 2.615 5.9" fill="#FFF"></path>
    <path d="M21.764 63.38s2.277-2.187 1.864-5.95c-.413-3.762-2.389-5.677-2.389-5.677s-1.87 2.319-1.738 5.585c.133 3.266 2.263 6.043 2.263 6.043M15.827 51.713s-2.243-1.89-2.089-5.403c.155-3.512 1.87-5.408 1.87-5.408s1.874 2.036 1.95 5.072c.075 3.035-1.73 5.739-1.73 5.739" fill="#FFF"></path>
    <path d="M15.827 51.713s2.93-.163 4.916-3.063c1.988-2.9 1.756-5.446 1.756-5.446s-2.722.5-4.606 2.881c-1.885 2.381-2.066 5.628-2.066 5.628M18.747 41.664s-1.554-2.447-.458-5.773c1.097-3.326 3.192-4.659 3.192-4.659s1.174 2.483.419 5.416c-.755 2.933-3.153 5.016-3.153 5.016" fill="#FFF"></path>
    <path d="M18.747 41.664s2.742.672 5.361-1.548c2.619-2.22 3.096-4.728 3.096-4.728s-2.643-.289-5.026 1.462c-2.383 1.75-3.431 4.814-3.431 4.814M24.383 33.265s-.88-2.483.768-5.206c1.647-2.723 3.773-3.478 3.773-3.478s.535 2.437-.729 4.882c-1.264 2.444-3.812 3.802-3.812 3.802" fill="#FFF"></path>
    <path d="M24.383 33.265s2.293 1.153 5.063-.282c2.77-1.434 3.703-3.558 3.703-3.558s-2.282-.793-4.749.273c-2.466 1.067-4.017 3.567-4.017 3.567M32.417 26.638s-.21-2.442 1.91-4.507c2.121-2.066 4.212-2.248 4.212-2.248s-.089 2.32-1.8 4.225c-1.71 1.905-4.322 2.53-4.322 2.53" fill="#FFF"></path>
    <path d="M32.417 26.638s1.794 1.575 4.624.933c2.831-.643 4.168-2.337 4.168-2.337s-1.87-1.248-4.34-.866c-2.47.383-4.452 2.27-4.452 2.27M41.108 22.063s.268-2.436 2.75-4.05c2.48-1.616 4.568-1.387 4.568-1.387s-.538 2.258-2.587 3.794c-2.048 1.536-4.731 1.643-4.731 1.643" fill="#FFF"></path>
    <path d="M41.108 22.063s1.454 1.893 4.355 1.813c2.902-.081 4.543-1.483 4.543-1.483s-1.592-1.588-4.09-1.692c-2.497-.105-4.808 1.362-4.808 1.362M49.696 19.182s.524-2.394 3.162-3.738c2.637-1.345 4.689-.898 4.689-.898s-.774 2.19-2.972 3.501c-2.199 1.312-4.879 1.135-4.879 1.135" fill="#FFF"></path>
    <path d="M49.696 19.182s1.247 2.036 4.14 2.262c2.895.225 4.674-.996 4.674-.996s-1.415-1.747-3.888-2.114c-2.473-.367-4.926.848-4.926.848M56.465 77.6s2.965 2.453 7.462 1.431c4.498-1.022 6.543-3.68 6.543-3.68s-3.067-1.942-7.003-1.329c-3.935.613-7.002 3.578-7.002 3.578" fill="#FFF"></path>
    <path d="M56.465 77.6s-.477-3.818 2.802-7.063c3.279-3.244 6.618-3.54 6.618-3.54s-.01 3.63-2.64 6.62c-2.632 2.99-6.78 3.983-6.78 3.983M68.258 72.14s3.21 1.393 6.88-.638c3.67-2.032 4.784-4.87 4.784-4.87s-3.17-.921-6.453.61c-3.283 1.533-5.211 4.899-5.211 4.899" fill="#FFF"></path>
    <path d="M68.258 72.14s-1.383-3.214.66-6.878c2.042-3.664 4.884-4.769 4.884-4.769s.911 3.174-.63 6.452c-1.543 3.278-4.914 5.196-4.914 5.196M78.159 63.38s3.157.033 5.496-2.943c2.339-2.977 2.269-5.727 2.269-5.727s-2.959.346-5.15 2.771c-2.192 2.425-2.615 5.9-2.615 5.9" fill="#FFF"></path>
    <path d="M78.159 63.38s-2.278-2.187-1.864-5.95c.413-3.762 2.389-5.677 2.389-5.677s1.87 2.319 1.738 5.585c-.133 3.266-2.263 6.043-2.263 6.043M83.789 51.406s2.243-1.89 2.089-5.403c-.155-3.512-1.87-5.407-1.87-5.407s-1.874 2.036-1.95 5.071c-.075 3.035 1.73 5.739 1.73 5.739" fill="#FFF"></path>
    <path d="M83.789 51.406s-2.93-.162-4.916-3.063c-1.988-2.9-1.756-5.446-1.756-5.446s2.722.501 4.606 2.882c1.885 2.38 2.066 5.627 2.066 5.627M80.563 41.05s1.554-2.447.457-5.773c-1.096-3.325-3.191-4.658-3.191-4.658s-1.174 2.483-.42 5.416c.755 2.933 3.154 5.015 3.154 5.015" fill="#FFF"></path>
    <path d="M80.563 41.05s-2.743.673-5.362-1.548c-2.618-2.22-3.096-4.727-3.096-4.727s2.644-.29 5.026 1.461c2.383 1.751 3.432 4.814 3.432 4.814M74.422 32.345s.879-2.483-.768-5.206c-1.647-2.723-3.774-3.478-3.774-3.478s-.535 2.437.73 4.882c1.264 2.444 3.812 3.802 3.812 3.802" fill="#FFF"></path>
    <path d="M74.422 32.345s-2.293 1.153-5.063-.282c-2.771-1.434-3.704-3.558-3.704-3.558s2.283-.793 4.75.273c2.466 1.067 4.017 3.567 4.017 3.567M66.28 25.411s.21-2.441-1.911-4.507c-2.12-2.066-4.212-2.247-4.212-2.247s.089 2.32 1.8 4.224c1.71 1.905 4.322 2.53 4.322 2.53" fill="#FFF"></path>
    <path d="M66.28 25.411s-1.795 1.575-4.625.933c-2.83-.643-4.168-2.337-4.168-2.337s1.87-1.248 4.34-.866c2.47.383 4.452 2.27 4.452 2.27M62.924 34.285a15.491 15.491 0 0 1 2.34 8.215c0 8.5-6.78 15.389-15.145 15.389-8.364 0-15.145-6.89-15.145-15.389 0-3.021.86-5.837 2.34-8.215-3.88 3.342-6.32 8.177-6.32 13.558 0 10.082 8.563 18.255 19.125 18.255s19.125-8.173 19.125-18.255c0-5.38-2.44-10.216-6.32-13.558M53.067 80.245c0 1.46-1.339 2.645-2.99 2.645-1.652 0-2.99-1.184-2.99-2.645 0-1.46 1.338-2.645 2.99-2.645 1.651 0 2.99 1.184 2.99 2.645M32.75 80.973s4.523.997 8.127 0c3.603-.996 4.216-1.303 4.216-1.303l.46 1.746s-4.063 2.624-7.82 3.62c-3.756.997-6.738 1.227-6.738 1.227s.528-.843 1.755-5.29M54.83 79.67l-.46 1.687s1.073 1.456 6.287 3.066c5.213 1.61 8.587 1.84 8.587 1.84s-.587-1.226-1.444-3.296l-.857-2.07S60.81 81.97 54.83 79.67M44.403 14.475c-1.686-.048-2.223 0-2.223 0s.212 1.053 1.097 1.736c1.354-.8 2.598-1.164 3.55-1.322a9.315 9.315 0 0 0-2.424-.414M49.696 11.846c-1.3-1.56-1.972-1.709-1.972-1.709s-.612.61-.637 2.143a5.454 5.454 0 0 0 .584 2.511c.519-.033.862-.005.955.006l2.073.226-.006.022.023-.005s.28-1.636-1.02-3.194" fill="#FFF"></path>
  </g>
</svg>
