<svg width="100" height="100" viewBox="0 0 100 100" 
  xmlns="http://www.w3.org/2000/svg">
    <g fill="none" fill-rule="evenodd">
    <path d="M50 95.43c20.027 0 37.057-12.662 43.372-30.33H6.628C12.944 82.768 29.973 95.43 50 95.43" fill="#FFD53F"></path>
    <path d="M93.372 34.77H6.628A44.958 44.958 0 0 0 4 49.935c0 5.319.932 10.42 2.628 15.165h86.744A44.959 44.959 0 0 0 96 49.935c0-5.319-.932-10.42-2.628-15.165" fill="#EE324A"></path>
    <path d="M50 4.44c-20.027 0-37.057 12.662-43.372 30.33h86.744C87.057 17.102 70.027 4.44 50 4.44" fill="#25333C"></path>
  </g>
</svg>
