<svg width="100px" height="100px" viewBox="0 0 100 100" version="1.1" 
  xmlns="http://www.w3.org/2000/svg" 
  xmlns:xlink="http://www.w3.org/1999/xlink">
  <defs>
    <path d="M46,3.10862447e-15 L46,37 L91.1199672,37 C91.6972793,39.9105429 92,42.9199193 92,46 C92,49.0800807 91.6972793,52.0894571 91.1199672,55 L46,55 L46,92 C39.6122647,92 33.5286283,90.6979976 27.999999,88.3449009 L28,55 L0.88003276,55 C0.302720712,52.0894571 0,49.0800807 0,46 C0,42.9199193 0.302720712,39.9105429 0.88003276,37 L28,37 L28,3.65509259 C33.5286283,1.30200237 39.6122647,0 46,0 Z" id="da-path-1"></path>
  </defs>
  <g id="da-page-1" stroke="none" stroke-width="1" fill="none" fill-rule="evenodd">
    <g id="splash_flag_dk">
      <circle id="da-oval-2" fill="#EE324A" cx="50" cy="50" r="46"></circle>
      <g id="da-oval-2" transform="translate(4.000000, 4.000000)">
        <mask id="da-mask-2" fill="white">
          <use xlink:href="#da-path-1"></use>
        </mask>
        <use id="Combined-Shape" fill="#FFFFFF" xlink:href="#da-path-1"></use>
      </g>
    </g>
  </g>
</svg>
