<svg width="100px" height="100px" viewBox="0 0 100 100" version="1.1" xmlns="http://www.w3.org/2000/svg" xmlns:xlink="http://www.w3.org/1999/xlink">
    <defs>
        <circle id="path-1" cx="46" cy="46" r="46"></circle>
        <polygon id="path-3" points="58.9848446 0.099367993 2.0830034e-05 0.099367993 2.0830034e-05 30.9062246 58.9848446 30.9062246"></polygon>
        <polygon id="path-5" points="0.0526680772 30.7656208 59.1989565 30.7656208 59.1989565 0.0427369208 0.0526680772 0.0427369208"></polygon>
        <polygon id="path-7" points="28.7871069 17.3142226 28.7871069 0.100099917 0.0898503515 0.100099917 0.0898503515 17.3142226"></polygon>
        <polygon id="path-9" points="28.7871069 17.3288848 28.7871069 0.114996199 0.0965680374 0.114996199 0.0965680374 17.3288848"></polygon>
        <polygon id="path-11" points="43.576431 25.8033619 43.576431 0.10588287 0.0139873678 0.10588287 0.0139873678 25.8033619"></polygon>
    </defs>
    <g id="Page-1" stroke="none" stroke-width="1" fill="none" fill-rule="evenodd">
        <g id="splash_flag_uk">
            <g transform="translate(4.000000, 4.000000)">
                <g id="Mask" fill-rule="nonzero" fill="#FFFFFF">
                    <circle id="path-1" cx="46" cy="46" r="46"></circle>
                </g>
                <g id="Clipped">
                    <mask id="mask-2" fill="white">
                        <use xlink:href="#path-1"></use>
                    </mask>
                    <g id="path-1"></g>
                    <g id="Group" mask="url(#mask-2)">
                        <g transform="translate(-20.000000, -3.000000)">
                            <polygon id="Fill-1" fill="#F03A4C" fill-rule="nonzero" points="0 40.3243574 52.2208951 40.3243574 52.2208951 10.1240549 0 10.1240549"></polygon>
                            <g id="Group-44" stroke-width="1" fill="none" fill-rule="evenodd" transform="translate(0.000000, 0.024687)">
                                <path d="M58.9753669,79.8245116 C58.9750545,72.7953116 58.9752628,65.7661116 58.9751586,58.7370356 C58.9751586,58.4889258 58.9687013,58.2405678 58.9723466,57.9928302 C58.9794288,57.5252672 58.7917502,57.3106521 58.4022285,57.3168549 C58.1594545,57.3207006 57.916368,57.3136295 57.6733857,57.3136295 C38.5807848,57.3135054 19.488184,57.3146219 0.395687325,57.3064343 C0.266541115,57.3064343 0.133124747,57.3226855 2.08300339e-05,57.3309971 L2.08300339e-05,62.3524923 C9.33354245,62.3511277 18.6669599,62.3508796 28.0004815,62.3547253 C28.1626433,62.3547253 28.3367824,62.2905889 28.5306059,62.4393307 C28.3766719,62.5413039 28.2506502,62.6326083 28.1192127,62.710887 C18.7467389,68.2938547 9.37374441,73.87583 2.08300339e-05,79.4559445 L2.08300339e-05,88.0304967 L0.516709822,88.0304967 C14.7002965,79.5792551 28.8859663,71.1329757 43.0684073,62.6790049 C43.45168,62.4504957 43.8313073,62.3438085 44.2599894,62.3459174 C47.1054762,62.3594394 49.9510672,62.3528645 52.7966581,62.3528645 L53.3718795,62.3528645 C53.2299228,62.6102784 53.0380782,62.6582877 52.8829986,62.7507086 C38.7350312,71.1793722 24.5855016,79.604066 10.4365969,88.0304967 L15.3943533,88.0304967 C16.098825,87.6011426 16.8164197,87.202306 17.5239118,86.7805193 C29.7563492,79.4890671 41.991078,72.2033215 54.2263275,64.9186924 C54.3770328,64.8290007 54.5152401,64.6884465 54.7243736,64.6983709 C54.7321849,64.8399175 54.7467659,64.9789831 54.7467659,65.1180487 C54.7478074,72.755614 54.7478074,80.3930554 54.7465576,88.0304967 L58.9763043,88.0304967 C58.9769292,87.9618943 58.9783873,87.8932919 58.9782831,87.8253098 C58.9721383,85.1583771 58.9754711,82.4914444 58.9753669,79.8245116" id="Fill-2" fill="#FEFEFE" fill-rule="nonzero"></path>
                                <g id="Group-6" transform="translate(0.000000, 10.000000)">
                                    <g id="Fill-4-Clipped">
                                        <mask id="mask-4" fill="white">
                                            <use xlink:href="#path-3"></use>
                                        </mask>
                                        <g id="path-3"></g>
                                        <path d="M57.7759736,30.9013865 C58.9748462,30.9013865 58.9751586,30.9010143 58.9751586,29.481826 C58.9753669,19.9098723 58.9770333,10.3380425 58.9734922,0.766212824 C58.9733881,0.497509861 58.9763043,0.278552923 58.9848446,0.09929356 L54.7613469,0.09929356 C54.7613469,0.105620361 54.7615552,0.111078778 54.7615552,0.117529634 C54.7404127,7.70336409 54.7478074,15.2893226 54.7478074,22.8751571 L54.7478074,23.6085698 C41.5489605,15.7482018 28.4097917,7.92343752 15.2719768,0.09929356 L0.365796226,0.09929356 C14.5484456,8.54817811 28.7311991,16.9969386 42.9138485,25.4460713 C43.077156,25.5433303 43.2394219,25.6433186 43.4333495,25.7610467 C43.2366099,25.9269082 43.0620542,25.8580577 42.9017671,25.8583058 C40.0381582,25.8635161 37.1744451,25.8552044 34.3109403,25.8694707 C33.8810084,25.8717037 33.5036724,25.7564567 33.1211288,25.5284437 C22.0830855,18.9472061 11.0416052,12.37428 2.0830034e-05,5.80160213 L2.0830034e-05,8.7507598 C0.661999309,9.12143591 1.30346021,9.54247832 1.95773157,9.93151456 C10.6646858,15.1085746 19.3687238,20.2925817 28.0731783,25.4754723 C28.2201342,25.562931 28.3621951,25.6619268 28.5239403,25.7668773 C28.3743806,25.9233106 28.2321115,25.8604147 28.1046317,25.8604147 C18.7364281,25.8640123 9.36822445,25.8637642 2.0830034e-05,25.8625237 L2.0830034e-05,30.9062246 C0.218632036,30.9038676 0.437243243,30.9016346 0.655854449,30.9016346 C19.6958594,30.9013865 38.7359686,30.9015106 57.7759736,30.9013865" id="Fill-4" fill="#FEFEFE" fill-rule="nonzero" mask="url(#mask-4)"></path>
                                    </g>
                                </g>
                                <path d="M72.753872,11.6977164 C72.7540803,21.0215603 72.7537678,30.3452802 72.7541844,39.6691241 C72.7542886,40.8995009 72.7555384,40.9011136 73.7980816,40.9011136 C92.9770229,40.9016098 112.155964,40.9003692 131.334801,40.9085569 C131.517689,40.9085569 131.709013,40.8761785 131.895754,40.8800242 L131.895754,35.8624988 C122.506825,35.8639875 113.117791,35.8642356 103.728757,35.8603899 C103.566596,35.8602659 103.392456,35.9242782 103.198529,35.7757845 C103.352463,35.6736873 103.478485,35.5823828 103.609922,35.5041042 C113.038012,29.8881378 122.466519,24.2730399 131.895754,18.6599268 L131.895754,10.0993928 L131.357923,10.0993928 C126.726156,12.8573818 122.175523,15.5668654 117.626244,18.276349 C107.971627,24.0265427 98.3165938,29.77562 88.6652059,35.5332571 C88.2823499,35.7616422 87.9032432,35.8713067 87.4740404,35.8693219 C84.6282411,35.8554277 81.7824419,35.8621267 78.9365385,35.8621267 L78.4096428,35.8621267 C78.4290147,35.6172423 78.5960716,35.6183588 78.7050127,35.553478 C92.9474443,27.067377 107.191126,18.5845014 121.433974,10.0993928 L116.456116,10.0993928 C103.328717,17.9175821 90.1993379,25.7371361 76.9814315,33.6092893 L76.9814315,32.9484487 C76.9814315,25.3320967 76.9834104,17.7157448 76.9758074,10.0993928 L72.7467898,10.0993928 C72.7484562,10.1531086 72.7498101,10.2095536 72.7507475,10.2712089 C72.7586629,10.7467114 72.753872,11.2222139 72.753872,11.6977164" id="Fill-7" fill="#FEFEFE" fill-rule="nonzero"></path>
                                <g id="Group-11" transform="translate(72.696819, 57.264925)">
                                    <g id="Fill-9-Clipped">
                                        <mask id="mask-6" fill="white">
                                            <use xlink:href="#path-5"></use>
                                        </mask>
                                        <g id="path-5"></g>
                                        <path d="M15.6365545,5.21247771 C15.7120634,4.98558125 15.8744335,5.09400526 15.987124,5.09375715 C18.9714429,5.08643791 21.9558661,5.09350904 24.940185,5.08073138 C25.2891922,5.07924272 25.578938,5.22475915 25.873683,5.40042092 C36.9818193,12.0193713 48.0900599,18.6379495 59.1990294,25.254791 L59.1990294,22.2911189 C58.4775812,21.8993534 57.7836286,21.4401021 57.0746784,21.0185635 C48.3677242,15.8415035 39.6636862,10.6576204 30.9592316,5.47460576 C30.8122757,5.38714704 30.6701108,5.28815121 30.5084697,5.1833248 C30.6579252,5.02676749 30.8001943,5.08966333 30.9276741,5.08966333 C40.3514939,5.08606574 49.7752096,5.08631385 59.1990294,5.0875544 L59.1990294,0.0427369208 C58.924802,0.0464585685 58.6506788,0.0484434473 58.3765555,0.0484434473 C39.3360298,0.0486915571 20.295504,0.0485675022 1.25508245,0.0486915571 C0.0575637988,0.0486915571 0.0572513483,0.0491877768 0.0571471982,1.47184963 C0.0569388978,11.0852377 0.0587094507,20.6987499 0.0526687409,30.312138 C0.0525645907,30.4603837 0.0647501606,30.6138396 0.0667290138,30.7656828 L4.28574824,30.7656828 C4.28449844,23.1694277 4.28460259,15.5732967 4.28460259,7.97716571 L4.28460259,7.43454948 C4.51716992,7.42350859 4.65537719,7.56406282 4.80608249,7.65375453 C17.7432,15.3554563 30.679276,23.0596391 43.6146229,30.7656828 L58.5210118,30.7656828 C44.3677328,22.3331735 30.2129957,13.9042618 16.0584668,5.47472981 C15.9190098,5.39173707 15.7819481,5.3030378 15.6365545,5.21247771" id="Fill-9" fill="#FEFEFE" fill-rule="nonzero" mask="url(#mask-6)"></path>
                                    </g>
                                </g>
                                <g id="Group-14" fill-rule="nonzero" fill="#EF364B">
                                    <path d="M73.9518489,57.3135922 C92.9923746,57.3134682 112.032796,57.3135922 131.073322,57.3133441 C131.347549,57.3133441 131.621673,57.3113592 131.895796,57.3076376 L131.895796,40.8800366 C131.709055,40.8760669 131.517627,40.9085693 131.334843,40.9084452 C112.155902,40.9002576 92.9770646,40.9016222 73.7981232,40.901126 C72.75558,40.901126 72.7543302,40.8995133 72.7542261,39.6690125 C72.7538095,30.3452926 72.7540178,11.0214487 72.7539136,1.69772883 C72.7539136,1.22222631 72.7586004,0.746723795 72.7507891,0.271221277 C72.7497476,0.209565981 58.9848446,0.0994052094 58.9848446,0.0994052094 C58.9763043,0.278540518 58.9733881,0.497497456 58.9734922,0.766200418 C58.9770333,10.3380301 58.9753669,29.9099839 58.9751586,39.4818136 C58.9751586,40.9010019 58.9748462,40.9013741 57.7759736,40.9013741 C38.7359686,40.9014981 19.6958594,40.9013741 0.655854449,40.9016222 C0.437243243,40.9016222 0.218632036,40.9038552 2.08300339e-05,40.9062122 L2.08300339e-05,57.3309599 C0.133124747,57.3226482 0.266541115,57.3063971 0.395687325,57.3065211 C19.488184,57.3145847 38.5807848,57.3134682 57.6733857,57.3137163 C57.916368,57.3137163 58.1594545,57.3206634 58.4022285,57.3168177 C58.7917502,57.310739 58.9794288,57.525354 58.9723466,57.9927929 C58.9687013,58.2406547 58.9751586,58.4888886 58.9751586,58.7369984 C58.9752628,65.7661984 58.9750545,72.7953985 58.9753669,79.8244744 C58.9754711,82.4915312 58.9721383,95.1584639 58.9782831,97.8253967 C58.9783873,97.8932547 72.7635996,98.0305835 72.7635996,98.0305835 C72.7615166,97.8787403 72.7494352,97.7254084 72.7495393,97.5770387 C72.75558,87.9636506 72.7537053,68.3501384 72.7540178,58.7367503 C72.7540178,57.3140885 72.7543302,57.3135922 73.9518489,57.3135922 Z" id="Fill-12"></path>
                                </g>
                                <g id="Group-17" transform="translate(76.966975, 64.584166)" fill-rule="nonzero" fill="#0B4886">
                                    <path d="M0.0144352135,0.65787566 C0.0144352135,8.25413073 0.0143310634,25.8502617 0.0155808654,33.4463928 L39.3444555,23.4463928 C26.4091086,15.7403491 13.4730326,8.03616623 0.535915114,0.334588532 C0.385209818,0.244896823 0.247002543,0.104342595 0.0144352135,0.115259429 L0.0144352135,0.65787566 Z" id="Fill-15"></path>
                                </g>
                                <g id="Group-20" transform="translate(15.310075, 64.584166)" fill-rule="nonzero" fill="#084686">
                                    <path d="M39.414257,0.114167745 C39.2052276,0.104243351 39.0669162,0.244797579 38.916315,0.334489288 C26.6809614,7.61911839 14.4462326,14.904864 2.21389933,22.1964402 C1.50630308,22.6181029 0.788708406,23.0170635 0.0843408075,23.4464176 L39.4365451,33.4464176 C39.4376908,25.8088522 39.4377949,8.17141091 39.4367534,0.533969603 C39.4367534,0.39477998 39.4221724,0.255714412 39.414257,0.114167745" id="Fill-18"></path>
                                </g>
                                <path d="M52.7966894,62.3529017 C49.9510984,62.3529017 47.1055075,62.3594766 44.2599165,62.3458305 C43.8313386,62.3438457 43.4517112,62.4505329 43.0683344,62.6790421 C28.8859975,71.1330129 14.7003278,79.5792923 0.516741067,88.0305339 L10.4366281,88.0305339 C24.5854287,79.6041033 38.7350625,71.1794094 52.8830298,62.7507458 C53.0381094,62.6583249 53.2298499,62.6103156 53.3719107,62.3529017 L52.7966894,62.3529017 Z" id="Fill-21" fill="#F03A4C" fill-rule="nonzero"></path>
                                <path d="M28.5239611,35.7668401 C28.3622159,35.6618896 28.2201551,35.5628938 28.0731992,35.4754351 C19.3687446,30.2925445 10.6647066,25.1085374 1.9577524,19.9314773 C1.30348104,19.5425652 0.661915989,19.1215228 4.16600678e-05,18.7508466 L4.16600678e-05,35.8624864 C9.36824528,35.863851 18.7364489,35.8640992 28.1046525,35.8605016 C28.2321323,35.8603775 28.3744015,35.9232734 28.5239611,35.7668401" id="Fill-23" fill="#064486" fill-rule="nonzero"></path>
                                <g id="Group-27" transform="translate(103.108668, 18.559790)">
                                    <g id="Fill-25-Clipped">
                                        <mask id="mask-8" fill="white">
                                            <use xlink:href="#path-7"></use>
                                        </mask>
                                        <g id="path-7"></g>
                                        <path d="M0.0898503515,17.2159576 C0.283777968,17.3645754 0.457917052,17.300439 0.620078866,17.300563 C10.0091125,17.3044087 19.3981462,17.3041606 28.7871798,17.302796 L28.7871798,0.100099917 C19.3578401,5.713213 9.92933349,11.328311 0.501243522,16.9444014 C0.369806008,17.02268 0.243784302,17.1138604 0.0898503515,17.2159576" id="Fill-25" fill="#084686" fill-rule="nonzero" mask="url(#mask-8)"></path>
                                    </g>
                                </g>
                                <path d="M28.0005024,62.3547129 C18.6669807,62.3508672 9.33345913,62.3511153 4.16600678e-05,62.3524799 L4.16600678e-05,79.4559321 C9.37376524,73.8758176 18.7466556,68.2938423 28.1192336,62.7108746 C28.2506711,62.6325959 28.3766928,62.5414155 28.5306267,62.4393183 C28.3368033,62.2907005 28.1626642,62.3547129 28.0005024,62.3547129 Z" id="Fill-28" fill="#084686" fill-rule="nonzero"></path>
                                <g id="Group-32" transform="translate(103.108668, 62.227122)">
                                    <g id="Fill-30-Clipped">
                                        <mask id="mask-10" fill="white">
                                            <use xlink:href="#path-9"></use>
                                        </mask>
                                        <g id="path-9"></g>
                                        <path d="M0.547329972,0.512495696 C9.25178456,5.69538631 17.9558226,10.8793934 26.6627767,16.0563294 C27.371727,16.4779921 28.0657837,16.9371193 28.7871278,17.3288848 L28.7871278,0.125444338 C19.3633079,0.124079734 9.93959229,0.123831624 0.515876621,0.127429216 C0.388396813,0.127553271 0.246127681,0.0645333707 0.0965680374,0.221090683 C0.258313251,0.326041147 0.400374083,0.424912921 0.547329972,0.512495696 Z" id="Fill-30" fill="#084686" fill-rule="nonzero" mask="url(#mask-10)"></path>
                                    </g>
                                </g>
                                <g id="Group-35" transform="translate(88.319344, 62.227122)">
                                    <g id="Fill-33-Clipped">
                                        <mask id="mask-12" fill="white">
                                            <use xlink:href="#path-11"></use>
                                        </mask>
                                        <g id="path-11"></g>
                                        <path d="M43.5764623,20.2925941 C32.4674927,13.6757526 21.3592522,7.05717441 10.25122,0.438224014 C9.95637088,0.262562244 9.66662511,0.117045819 9.31772204,0.118534478 C6.33340307,0.131188081 3.34897996,0.124241005 0.364556839,0.131560245 C0.251866356,0.131808355 0.0896003911,0.0233843529 0.0139873678,0.250280806 C0.159381005,0.3408409 0.296442628,0.429540169 0.435899706,0.512532912 C14.5904285,8.9420649 28.7452698,17.3709766 42.8985488,25.8033619 L43.5764623,25.8033619 L43.5764623,20.2925941 Z" id="Fill-33" fill="#F03A4C" fill-rule="nonzero" mask="url(#mask-12)"></path>
                                    </g>
                                </g>
                                <g id="Group-38" transform="translate(76.966975, 0.000000)" fill-rule="nonzero" fill="#084686">
                                    <path d="M0.0144352135,33.6093265 C13.2323416,25.7371733 26.3618244,17.9176193 39.4891201,10.099306 L0.00881110437,0.0993059655 C0.0164140668,7.71578199 0.0144352135,25.332134 0.0144352135,32.9484859 L0.0144352135,33.6093265 Z" id="Fill-36"></path>
                                </g>
                                <g id="Group-41" transform="translate(15.205925, 0.000000)" fill-rule="nonzero" fill="#064486">
                                    <path d="M39.5418514,32.8751819 C39.5418514,25.2892234 39.5344567,7.7033889 39.5555992,0.117554445 C39.5557033,0.111103589 0.0660207926,10.0993184 0.0660207926,10.0993184 C13.2038357,17.9233383 26.3430045,25.7482266 39.5418514,33.6085946 L39.5418514,32.8751819 Z" id="Fill-39"></path>
                                </g>
                                <path d="M78.4096324,35.8621143 L78.9365281,35.8621143 C81.7824315,35.8621143 84.6282307,35.8554153 87.47403,35.8693095 C87.9032328,35.8714184 88.2823394,35.7616298 88.6651955,35.5332447 C98.3165834,29.7756076 107.971617,24.0265303 117.626233,18.2763366 C122.175513,15.566853 126.726146,12.8573694 131.357912,10.0993804 L121.433963,10.0993804 C107.191115,18.584489 92.9474338,27.0673646 78.7050023,35.5534656 C78.5961653,35.6183464 78.4290043,35.6172299 78.4096324,35.8621143" id="Fill-42" fill="#F03A4C" fill-rule="nonzero"></path>
                            </g>
                        </g>
                    </g>
                </g>
            </g>
        </g>
    </g>
</svg>