<svg width="100px" height="100px" viewBox="0 0 100 100" version="1.1" 
  xmlns="http://www.w3.org/2000/svg" 
  xmlns:xlink="http://www.w3.org/1999/xlink">
  <!-- Generator: Sketch 47 (45396) - http://www.bohemiancoding.com/sketch -->
    <desc>Created with Sketch.</desc>
  <defs>
    <path d="M91.5443188,39.5 L41,39.5 L41,39.5 C40.4477153,39.5 40,39.0522847 40,38.5 L40,38.5 L40,0.387758878 C35.420872,0.984247792 31.0533279,2.25417217 27,4.09489966 L27,38.5 C27,39.0522847 26.5522847,39.5 26,39.5 L0.45568122,39.5 C0.155340431,41.6234916 0,43.7936049 0,46 C0,48.2063951 0.155340431,50.3765084 0.45568122,52.5 L26,52.5 L26,52.5 C26.5522847,52.5 27,52.9477153 27,53.5 L27,87.9051003 C31.0533279,89.7458278 35.420872,91.0157522 40,91.6122411 L40,53.5 C40,52.9477153 40.4477153,52.5 41,52.5 L91.5443188,52.5 C91.8446596,50.3765084 92,48.2063951 92,46 C92,43.7936049 91.8446596,41.6234916 91.5443188,39.5 Z" id="path-1"></path>
  </defs>
  <g id="is-page-1" stroke="none" stroke-width="1" fill="none" fill-rule="evenodd">
    <g id="splash_flag_iceland">
      <g id="is-group-2" transform="translate(4.000000, 4.000000)">
        <circle id="is-mask" fill="#0B4886" cx="46" cy="46" r="46"></circle>
        <g>
          <path d="M45,0.0106544724 L45,34.5 L90.5507989,34.5 C91.4968405,38.1756291 92,42.029055 92,46 C92,49.970945 91.4968405,53.8243709 90.5507989,57.5 L45,57.5 L45,91.9893455 C36.5824806,91.8098183 28.7214718,89.3692066 21.9999798,85.2505165 L22,57.5 L1.44920108,57.5 C0.503159536,53.8243709 0,49.970945 0,46 C0,42.029055 0.503159536,38.1756291 1.44920108,34.5 L22,34.5 L22,6.74947114 C28.7214718,2.63079337 36.5824806,0.190181681 45,0.0106544724 Z" id="Combined-Shape" fill="#FEFEFE"></path>
          <mask id="is-mask-2" fill="white">
            <use xlink:href="#path-1"></use>
          </mask>
          <use id="Combined-Shape" fill="#F03A4C" xlink:href="#path-1"></use>
        </g>
      </g>
    </g>
  </g>
</svg>
