<svg width="100" height="100" viewBox="0 0 100 100" 
  xmlns="http://www.w3.org/2000/svg">
    <g fill="none" fill-rule="evenodd">
    <path d="M4 49.935C4 30.127 16.802 13.285 34.667 7.04v85.79C16.802 86.583 4 69.742 4 49.935" fill="#009246"></path>
    <path d="M65.333 7.039v85.792A46.37 46.37 0 0 1 50 95.429a46.37 46.37 0 0 1-15.333-2.598V7.039A46.371 46.371 0 0 1 50 4.439c5.378 0 10.536.923 15.333 2.6" fill="#FFF"></path>
    <path d="M96 49.935c0 19.807-12.802 36.65-30.667 42.895V7.04C83.198 13.285 96 30.127 96 49.935" fill="#ce2b37"></path>
  </g>
</svg>
