<svg width="100" height="100" viewBox="0 0 100 100" 
  xmlns="http://www.w3.org/2000/svg">
    <g fill="none" fill-rule="evenodd">
    <circle fill="#FFF" cx="50" cy="50" r="46"></circle>
    <g fill="#000">
      <path d="M25.902 21.024l2.298 1.928-10.927 13.023-2.298-1.928 10.927-13.023zm48.26 40.495l2.299 1.929-5.058 6.027-2.298-1.928 5.058-6.028zm3.831 3.214l2.298 1.929-5.057 6.027-2.298-1.928 5.057-6.028zm3.83 3.214l2.298 1.929-5.057 6.027-2.298-1.928 5.057-6.028zm-13.662.726l2.298 1.928-5.058 6.027-2.298-1.928 5.058-6.027zm3.83 3.213l2.298 1.929-5.057 6.027-2.299-1.928 5.058-6.028zm3.83 3.214l2.298 1.929-5.057 6.027-2.298-1.928L75.82 75.1zM29.732 24.238l2.298 1.928L21.103 39.19l-2.298-1.928 10.927-13.023zm3.83 3.214l2.299 1.928-10.928 13.023-2.298-1.929 10.928-13.022zM70.132 33.116l-2.264 1.968-5.162-5.938 2.264-1.968 5.162 5.938zM32.485 78.214l-2.264 1.969-5.162-5.939 2.264-1.968 5.162 5.938zm3.638-3.435l-2.264 1.968-11.153-12.83 2.264-1.968 11.153 12.83zm-9.764-3.612l-2.264 1.968-5.162-5.938 2.264-1.968 5.162 5.938zm2.217 10.172l-2.264 1.969-11.153-12.83 2.264-1.969 11.153 12.83zm51.455-44.456l-2.264 1.968-11.153-12.83 2.264-1.968 11.153 12.83zM77.68 26.555l-2.264 1.968-5.162-5.938 2.264-1.968 5.162 5.938zm-1.421 13.608l-2.264 1.968-5.162-5.938 2.264-1.968 5.162 5.938zm7.547-6.56L81.54 35.57l-5.162-5.939 2.264-1.968 5.162 5.938z"></path>
    </g>
    <g transform="rotate(21 -45.579 115.418)">
      <path d="M40 20C40 8.954 31.046 0 20 0S0 8.954 0 20h40z" fill="#EF364B"></path>
      <path d="M40 20c0 11.046-8.954 20-20 20S0 31.046 0 20h40z" fill="#008CC9"></path>
      <circle fill="#008CC9" cx="30" cy="20" r="10"></circle>
      <circle fill="#EF364B" cx="10" cy="20" r="10"></circle>
    </g>
  </g>
</svg>
