<svg viewBox="0 0 100 100" 
  xmlns="http://www.w3.org/2000/svg" 
  xmlns:xlink="http://www.w3.org/1999/xlink">
    <defs>
    <circle id="mongolian-a" cx="46" cy="46" r="46"></circle>
  </defs>
  <g fill="none" fill-rule="evenodd">
    <g transform="translate(4 4)">
      <mask id="mongolian-b" fill="#fff">
        <use xlink:href="#mongolian-a"></use>
      </mask>
      <use fill="#D8D8D8" xlink:href="#mongolian-a"></use>
      <g mask="url(#mongolian-b)">
        <path fill="#EF364B" d="M-2-1h36v97H-2z"></path>
        <path fill="#084686" d="M32-1h29v97H32z"></path>
        <path fill="#EF364B" d="M61-1h33v97H61z"></path>
      </g>
    </g>
    <g transform="translate(11 24)" fill-rule="nonzero" fill="#FFD22C">
      <path d="M4.984 13.521c-.014.153-.02.307-.02.464 0 2.89 2.35 5.232 5.25 5.232s5.25-2.343 5.25-5.232v-.077a5.73 5.73 0 0 1-5.155 3.216 5.729 5.729 0 0 1-5.325-3.603z"></path>
      <ellipse cx="10.309" cy="12.558" rx="3.818" ry="3.805"></ellipse>
      <path d="M8.018 5.232a2.383 2.383 0 0 0 2.387 2.379 2.383 2.383 0 0 0 2.386-2.379c0-.951-.597-1.07-.597-1.427 0-.356.358-.832-.358-1.427.358.595-.239.714-.239 1.309 0 .594.239.594.239 1.07a.477.477 0 0 1-.955 0c0-.476.478-.951.478-1.665 0-.713-.12-.951-.478-1.546C10.524.951 9.927.476 10.404 0c-.716.238-.358 1.19-.358 1.784 0 .595-.477.951-.477 1.665 0 .713.358.832.358 1.308a.477.477 0 0 1-.955 0c0-.476.239-.476.239-1.07 0-.595-.597-.714-.239-1.309-.716.595-.358 1.07-.358 1.427s-.596.476-.596 1.427zM0 20.168h4.773V43H0zM16.036 20.168h4.773V43h-4.773zM5.727 23.973h9.545v1.903H5.727zM5.727 37.292h9.545v1.903H5.727zM5.727 20.168l4.773 2.854 4.773-2.854zM5.727 39.956L10.5 42.81l4.773-2.854zM9.628 36.428c-.914-.249-1.592-1.116-1.592-2.153 0-1.232.957-2.225 2.13-2.225 1.621 0 2.93-1.358 2.93-3.025 0-.59-.164-1.14-.447-1.606a4.808 4.808 0 0 1 2.583 4.26c0 2.657-2.161 4.811-4.827 4.811-.265 0-.524-.021-.777-.062zm-2.134-.91a4.798 4.798 0 0 1-1.917-3.839c0-2.657 2.162-4.81 4.828-4.81.109 0 .217.003.325.01.9.258 1.565 1.119 1.565 2.146 0 1.232-.956 2.225-2.13 2.225-1.62 0-2.929 1.358-2.929 3.025 0 .443.093.864.258 1.243zm3.006-.51a.953.953 0 0 0 .955-.95.953.953 0 0 0-.955-.952.953.953 0 0 0-.955.952c0 .525.428.95.955.95zm0-4.946a.953.953 0 0 0 .955-.951.953.953 0 0 0-.955-.952.953.953 0 0 0-.955.952c0 .525.428.95.955.95z"></path>
    </g>
  </g>
</svg>
