<svg viewBox="0 0 100 100" 
  xmlns="http://www.w3.org/2000/svg">
    <g fill="none" fill-rule="evenodd">
    <path d="M49.935 96C30.127 96 13.285 83.198 7.04 65.333h85.79C86.583 83.198 69.742 96 49.935 96" fill="#0090C9"></path>
    <path d="M7.039 34.667h85.792A46.37 46.37 0 0 1 95.429 50a46.37 46.37 0 0 1-2.598 15.333H7.039A46.371 46.371 0 0 1 4.439 50c0-5.378.923-10.536 2.6-15.333" fill="#FFF"></path>
    <path d="M49.935 4c19.807 0 36.65 12.802 42.895 30.667H7.04C13.285 16.802 30.127 4 49.935 4" fill="#EF364B"></path>
  </g>
</svg>
