<svg id="portuguese-flag" viewBox="0 0 100 100" 
  xmlns="http://www.w3.org/2000/svg">
    <g fill="none" fill-rule="evenodd">
    <path d="M34.667 92.83s10.222-27.776 10.222-41.664c0-14.709-10.222-44.127-10.222-44.127C16.802 13.286 4 30.127 4 49.935 4 69.742 16.802 86.584 34.667 92.83z" fill="#3BAC31"></path>
    <path d="M50 4.44c-5.378 0-10.536.922-15.333 2.6V92.83A46.37 46.37 0 0 0 50 95.429a46.37 46.37 0 0 0 15.333-2.598C83.198 86.584 96 69.74 96 49.934 96 30.128 83.198 13.285 65.333 7.04A46.371 46.371 0 0 0 50 4.44z" fill="#EF364B"></path>
    <path d="M53.067 49.495c0-10.051-8.238-18.198-18.4-18.198-10.163 0-18.4 8.147-18.4 18.198 0 10.05 8.237 18.197 18.4 18.197 10.162 0 18.4-8.147 18.4-18.197" fill="#FFD340"></path>
  </g>
</svg>
