<svg viewBox="0 0 100 100" version="1.1" 
  xmlns="http://www.w3.org/2000/svg" 
  xmlns:xlink="http://www.w3.org/1999/xlink">
  <!-- Generator: Sketch 45.2 (43514) - http://www.bohemiancoding.com/sketch -->
    <desc>Created with Sketch.</desc>
  <defs>
    <path d="M0,45.7449597 C0,71.0091053 20.4798196,91.4889249 45.7449597,91.4889249 C71.0100998,91.4889249 91.4899194,71.0091053 91.4899194,45.7449597 C91.4899194,20.4798196 71.0100998,0 45.7449597,0 C20.4798196,0 0,20.4798196 0,45.7449597 Z" id="path-111"></path>
    <path d="M30.2760951,3.93954027 C30.2760951,3.93954027 30.3071436,3.36425833 29.4133552,16.9699244 C28.8835411,25.0350048 25.5947615,31.751657 15.2480414,34.9544478 C4.90008962,31.751657 1.60161021,25.0358541 1.08149591,16.9699244 C0.183604407,3.04542811 0.219371861,3.93954027 0.219371861,3.93954027 C4.65376847,1.78423016 10.9053994,0.613588866 15.2480414,0.613588866 C19.5900676,0.613588866 25.8410827,1.78423016 30.2760951,3.93954027 Z" id="path-3"></path>
    <path d="M13.0865403,0 C16.8206695,0 22.0794764,0.935413546 26.1360223,2.64474288 C26.1360223,2.64474288 26.163228,2.4676163 25.3094316,16.2470219 C24.8451979,23.7413283 21.9231883,29.3352866 13.0865403,32.1895713 C4.24931341,29.3352866 1.32788261,23.7413283 0.863070067,16.2470219 C0.0092736682,2.4676163 0.036479384,2.64474288 0.036479384,2.64474288 C4.09244641,0.935413546 9.35125338,0 13.0865403,0" id="path-5"></path>
  </defs>
  <g id="Page-1" stroke="none" stroke-width="1" fill="none" fill-rule="evenodd">
    <g id="splash_flag_slovenia">
      <g transform="translate(4.000000, 4.000000)">
        <g id="Group-2">
          <mask id="mask-2" fill="white">
            <use xlink:href="#path-111"></use>
          </mask>
          <g id="Clip-2"></g>
          <polygon id="Fill-3" fill="#0088C9" mask="url(#mask-2)" points="-3.97826008 69.9326124 94.867443 69.9326124 94.867443 36.8916016 -3.97826008 36.8916016"></polygon>
          <rect id="Rectangle-2" fill="#FFFFFF" mask="url(#mask-2)" x="0.346679688" y="0" width="94.3066406" height="36.8916016"></rect>
          <rect id="Rectangle-3" fill="#F2404E" mask="url(#mask-2)" x="1.85009766" y="63.4125977" width="88.1499023" height="28.5874023"></rect>
        </g>
        <g id="Group-13" transform="translate(13.000000, 15.000000)">
          <g id="Group-14" transform="translate(0.000000, 0.578845)">
            <g id="Path-6">
              <mask id="mask-4" fill="white">
                <use xlink:href="#path-3"></use>
              </mask>
              <use id="Mask" fill="#F2404E" xlink:href="#path-3"></use>
              <path d="M-2.16692281,5.08805987 C4.47122596,1.93602283 10.5503631,0.432321752 16.0704887,0.576956652 C24.350677,0.793909002 30.9675184,4.27363307 33.3938259,5.44503888 C35.0113642,6.22597609 34.2530119,13.6303704 31.1187691,27.658222 L25.1348537,33.729192 L19.4886174,36.1801376 L8.37805643,35.4878064 C3.28563042,32.5090575 0.722125099,30.9560346 0.687540476,30.8287376 C0.652955853,30.7014406 -0.189576659,25.9528077 -1.84005706,16.5828387 L-2.16692281,5.08805987 Z" mask="url(#mask-4)"></path>
            </g>
          </g>
          <path d="M15.3291569,1.1213083 C19.0632861,1.1213083 24.322093,2.05672184 28.3786389,3.76605118 C28.3786389,3.76605118 28.4058446,3.5889246 27.5520482,17.3683302 C27.0878145,24.8626366 24.1658049,30.4565949 15.3291569,33.3108796 C6.49193001,30.4565949 3.57049921,24.8626366 3.10568666,17.3683302 C2.25189026,3.5889246 2.27909598,3.76605118 2.27909598,3.76605118 C6.33506301,2.05672184 11.59387,1.1213083 15.3291569,1.1213083" id="Fill-5" fill="#0088C9"></path>
          <g id="Group-15" transform="translate(2.242617, 1.121308)">
            <mask id="mask-6" fill="white">
              <use xlink:href="#path-5"></use>
            </mask>
            <use id="Mask" fill="#0088C9" xlink:href="#path-5"></use>
            <g mask="url(#mask-6)" fill="#FFFFFF">
              <g transform="translate(1.156833, 9.751003)">
                <path d="M12.0407885,16.521951 C14.083145,16.521951 14.083145,15.4882823 16.0795906,15.4882823 C18.0760363,15.4882823 18.0760363,16.521951 20.1183928,16.521951 C20.8887494,16.521951 21.3687875,16.3781421 21.7752333,16.1951739 C22.1269913,15.6955561 22.4456664,15.1837855 22.7312587,14.6544607 C21.9548257,14.9596327 21.5132716,15.4410211 20.1183928,15.4410211 C18.0760363,15.4410211 18.0760363,14.4073525 16.0795906,14.4073525 C14.083145,14.4073525 14.083145,15.4410211 12.0407885,15.4410211 C9.99775689,15.4410211 9.99775689,14.4073525 8.00131125,14.4073525 C6.0048656,14.4073525 6.0048656,15.4410211 3.96250913,15.4410211 C2.5676303,15.4410211 2.12607621,14.9596327 1.35031833,14.6544607 C1.63523549,15.1837855 1.95391062,15.6955561 2.3063437,16.1951739 C2.71211436,16.3781421 3.19215252,16.521951 3.96250913,16.521951 C6.0048656,16.521951 6.0048656,15.4882823 8.00131125,15.4882823 C9.99775689,15.4882823 9.99775689,16.521951 12.0407885,16.521951" id="Fill-6"></path>
                <path d="M12.0212089,22.7637974 C15.9087754,21.4566893 18.698533,19.6310589 20.6659468,17.4354413 C20.4944564,17.4550209 20.3087876,17.4664986 20.0988131,17.4664986 C18.0564567,17.4664986 18.0564567,16.43283 16.060011,16.43283 C14.0635654,16.43283 14.0635654,17.4664986 12.0212089,17.4664986 C9.97817728,17.4664986 9.97817728,16.43283 7.98173163,16.43283 C5.98528598,16.43283 5.98528598,17.4664986 3.94292951,17.4664986 C3.73295501,17.4664986 3.54728624,17.4550209 3.37579582,17.4354413 C5.34320962,19.6310589 8.13296728,21.4566893 12.0212089,22.7637974" id="Fill-7"></path>
                <path d="M16.3375014,13.2575564 C18.3339471,13.2575564 18.3339471,14.2912251 20.3763036,14.2912251 C21.4822143,14.2912251 22.5563925,13.8253653 23.1741631,13.2075946 C24.1011567,12.2806011 24.3772968,12.555935 24.5967235,11.3858841 L18.4473738,3.90039449 L15.987769,6.8926999 L12.2986993,2.84217094e-14 L8.60895449,6.8926999 L6.14934966,3.90039449 L8.52651283e-14,11.3858841 C0.219426728,12.555935 0.495566826,12.2806011 1.4218852,13.2075946 C2.04033099,13.8253653 3.11450922,14.2912251 4.22041993,14.2912251 C6.2627764,14.2912251 6.2627764,13.2575564 8.25922205,13.2575564 C10.2556677,13.2575564 10.2556677,14.2912251 12.2986993,14.2912251 C14.3410558,14.2912251 14.3410558,13.2575564 16.3375014,13.2575564 Z" id="Fill-8"></path>
              </g>
            </g>
          </g>
          <g id="Group-18" transform="translate(11.000000, 3.000000)" fill="#FFDC23">
            <circle id="Oval-2" cx="4.69831617" cy="4.84915808" r="1.1213083"></circle>
            <circle id="Oval-2" cx="8.06224106" cy="1.48523319" r="1.1213083"></circle>
            <circle id="Oval-2" cx="1.33439128" cy="1.48523319" r="1.1213083"></circle>
          </g>
        </g>
      </g>
    </g>
  </g>
</svg>
