<svg viewBox="0 0 100 100" 
  xmlns="http://www.w3.org/2000/svg" 
  xmlns:xlink="http://www.w3.org/1999/xlink">
    <defs>
    <circle id="turkish-a" cx="46" cy="46" r="46"></circle>
  </defs>
  <g fill="none" fill-rule="evenodd">
    <use fill="#EF364B" xlink:href="#turkish-a" transform="translate(4 4)"></use>
    <g fill="#FFF">
      <path d="M53.942 67.573c-10.594 1.678-20.521-5.414-22.172-15.84-1.652-10.428 5.598-20.24 16.192-21.919a19.555 19.555 0 0 1 10.702 1.296c-4.93-4.177-11.44-6.263-18.147-5.2-12.568 1.99-21.066 14.277-18.98 27.443C23.622 66.519 35.5 75.578 48.068 73.588c6.707-1.062 12.253-5.059 15.652-10.555a19.551 19.551 0 0 1-9.778 4.54z" stroke="#FFF" fill-rule="nonzero" stroke-linecap="round" stroke-linejoin="round"></path>
      <path d="M74.185 51.431l-3.288 3.023c-.702.645-1.398.404-1.556-.539l-.742-4.42-3.889-2.209c-.829-.471-.817-1.21.027-1.65l3.959-2.064.884-4.389c.189-.936.893-1.151 1.573-.48l3.188 3.143 4.436-.502c.945-.108 1.369.498.944 1.353l-1.988 4.006 1.857 4.079c.395.87-.046 1.46-.989 1.317l-4.416-.668z"></path>
    </g>
  </g>
</svg>
