<svg viewBox="0 0 100 100" xmlns="http://www.w3.org/2000/svg">
  <g fill="none" fill-rule="evenodd" id="svg_1">
    <path d="M96,50C96,75.405 75.405,96 50,96S4,75.405 4,50S24.595,4 50,4S96,24.595 96,50" fill="#dd2926" id="svg_2"></path>
    <path d="M50.00097346399237,65.36691359291369 L39.33025220058371,70.47806095621878 C37.05608904967715,71.56862209163003 35.477444608907,70.41857580337816 35.80690084002425,67.90799730143839 L37.35198955355098,56.14061386130148 L29.213200436691537,47.53204456303411 C27.477454182008998,45.6956311266213 28.078406751732125,43.83481352494054 30.558480047086967,43.37265964517885 L42.18248901627471,41.21136575863653 L47.82290171382834,30.778585106590327 C49.0248068532746,28.5547555465489 50.97408955405165,28.55323028621965 52.17751995382716,30.778585106590327 L57.817932651380794,41.21136575863653 L69.44194162056853,43.37265964517885 C71.92048965559412,43.8332882646113 72.5229674856465,45.694105866292055 70.78722123096397,47.53204456303411 L62.64843211410453,56.14061386130148 L64.19352082763126,67.90799730143839 C64.5229770587485,70.41705054304892 62.947383138636845,71.56862209163003 60.67016946707179,70.47806095621878 L50.00097346399237,65.36691359291369 z" fill="#FFD73E" id="svg_3" fill-opacity="1" stroke-opacity="1" stroke="none"></path>
  </g>
</svg>
