<svg viewBox="0 0 100 100" 
  xmlns="http://www.w3.org/2000/svg">
    <g fill="none" fill-rule="evenodd">
    <path d="M50 4c-5.378 0-10.536.932-15.333 2.628C16.802 12.944 4 29.974 4 50c0 20.027 12.802 37.057 30.667 43.373A45.911 45.911 0 0 0 50 96c5.378 0 10.536-.931 15.333-2.627C83.198 87.057 96 70.027 96 50c0-20.026-12.802-37.057-30.667-43.372A45.912 45.912 0 0 0 50 4z" fill="#EE324A"></path>
    <path d="M32.277 43.767l-6.996 3.351c-1.491.715-2.526-.039-2.31-1.685l1.013-7.715-5.336-5.644c-1.138-1.204-.744-2.424.882-2.727l7.621-1.417 3.698-6.84c.788-1.458 2.066-1.459 2.855 0l3.698 6.84 7.621 1.417c1.625.302 2.02 1.522.882 2.727l-5.336 5.644 1.013 7.715c.216 1.645-.817 2.4-2.31 1.685l-6.995-3.351z" fill="#FFD73E"></path>
    <path d="M68 48.683l-2.418 1.207c-.543.271-.923.012-.846-.598l.355-2.822-1.858-2.048c-.407-.449-.252-.907.335-1.02l2.634-.511 1.288-2.483c.281-.543.738-.545 1.02 0l1.288 2.483 2.634.51c.592.115.743.57.335 1.02l-1.858 2.05.355 2.821c.076.602-.307.867-.846.598L68 48.683zM56.62 59.415l-2.693.213c-.606.048-.861-.335-.561-.871l1.386-2.483-.955-2.596c-.21-.568.105-.935.693-.82l2.633.513 2.124-1.82c.465-.398.888-.229.946.383l.264 2.784 2.25 1.46c.507.328.476.807-.07 1.072l-2.49 1.203-.728 2.75c-.155.586-.61.688-1.01.237l-1.789-2.025zM60.693 21.512l-.765 2.591c-.173.583-.622.684-1.015.212L57.09 22.13l-2.765-.038c-.606-.008-.835-.434-.518-.94l1.423-2.275-.937-2.635c-.206-.577.104-.912.696-.747l2.694.752 2.17-1.578c.487-.355.923-.155.974.45l.231 2.756 2.306 1.665c.492.355.425.816-.14 1.027l-2.532.945zM69.498 32.364l-1.718 2.087c-.386.469-.839.386-1.016-.202l-.824-2.722-2.53-1.116c-.554-.245-.6-.726-.109-1.069l2.199-1.537.166-2.792c.036-.611.453-.798.933-.415l2.186 1.744 2.614-.605c.587-.136.91.219.72.796l-.863 2.627 1.472 2.433c.314.519.072.918-.53.891l-2.7-.12z" fill="#FFDA00"></path>
  </g>
</svg>
