<?xml version="1.0" encoding="iso-8859-1"?>
<!-- Generator: Adobe Illustrator 19.0.0, SVG Export Plug-In . SVG Version: 6.00 Build 0)  -->
<svg version="1.1" id="Capa_1" xmlns="http://www.w3.org/2000/svg" xmlns:xlink="http://www.w3.org/1999/xlink" x="0px" y="0px"
	 viewBox="0 0 512.001 512.001" style="enable-background:new 0 0 512.001 512.001;" xml:space="preserve">
<path style="fill:#34444A;" d="M256.001,33.439c-8.283,0-14.998,6.713-14.998,14.994v375.209c0,8.281,6.715,14.994,14.998,14.994
	s14.998-6.713,14.998-14.994V48.433C270.999,40.152,264.284,33.439,256.001,33.439z"/>
<path style="fill:#CFA05F;" d="M306.334,457.933l-9.073-18.14l0,0c-7.864-15.725-23.675-25.493-41.26-25.493
	s-33.395,9.769-41.26,25.493l-9.074,18.141c-5.816,11.632-5.205,25.26,1.633,36.322C214.138,505.316,225.986,512,238.991,512h34.018
	c13.006,0,24.854-6.683,31.692-17.745C311.54,483.193,312.15,469.566,306.334,457.933z M279.187,478.485
	c-0.796,1.286-2.655,3.519-6.177,3.519h-34.018c-3.521,0-5.38-2.233-6.175-3.519c-0.796-1.286-1.895-3.953-0.319-7.101l9.073-18.159
	c2.793-5.583,7.971-8.926,14.214-8.926c6.243,0,12.215,3.327,14.214,8.91v-0.001l9.289,18.176
	C280.864,474.534,279.982,477.199,279.187,478.485z"/>
<path style="fill:#FACC8C;" d="M256.001,482.004h-17.009c-3.521,0-5.38-2.234-6.175-3.519c-0.796-1.286-1.895-3.953-0.319-7.101
	l9.073-18.159c2.793-5.583,7.971-8.926,14.214-8.926l0.216-29.998c-17.585,0-33.395,9.769-41.26,25.493l-9.074,18.141
	c-5.816,11.632-5.205,25.26,1.633,36.322c6.838,11.061,18.686,17.745,31.691,17.745H256v-29.997H256.001z"/>
<path style="fill:#859DA6;" d="M312.272,30.312L276.355,6.22c-12.365-8.293-28.345-8.294-40.709,0l-35.916,24.092
	c-30.217,20.269-44.537,57.586-35.632,92.86l17.774,70.472c1.682,6.659,7.673,11.393,14.542,11.393h119.17
	c6.869,0,12.86-4.733,14.542-11.392l17.776-70.439C356.808,87.932,342.488,50.581,312.272,30.312z"/>
<path style="fill:#B8CFD6;" d="M256.003,0c-7.087-0.001-14.174,2.073-20.358,6.22L199.73,30.312
	c-30.217,20.269-44.537,57.586-35.632,92.86l17.774,70.472c1.682,6.659,7.673,11.393,14.542,11.393H256L256.003,0z"/>
<g>
</g>
<g>
</g>
<g>
</g>
<g>
</g>
<g>
</g>
<g>
</g>
<g>
</g>
<g>
</g>
<g>
</g>
<g>
</g>
<g>
</g>
<g>
</g>
<g>
</g>
<g>
</g>
<g>
</g>
</svg>
