<?xml version="1.0" encoding="iso-8859-1"?>
<!-- Generator: Adobe Illustrator 19.0.0, SVG Export Plug-In . SVG Version: 6.00 Build 0)  -->
<svg version="1.1" id="Capa_1" xmlns="http://www.w3.org/2000/svg" xmlns:xlink="http://www.w3.org/1999/xlink" x="0px" y="0px"
	 viewBox="0 0 512 512" style="enable-background:new 0 0 512 512;" xml:space="preserve">
<path style="fill:#A67955;" d="M84.254,140.011c-4.993-2.35-10.579-2.35-15.573,0C25.553,160.317,0,195.222,0,233.383v45.234
	c0,38.161,25.618,73.066,68.746,93.372c2.497,1.175,5.125,1.763,7.819,1.763s5.225-0.588,7.721-1.763
	C127.415,351.683,153,316.777,153,278.617v-45.234C153,195.222,127.382,160.317,84.254,140.011z"/>
<path style="fill:#DEA06D;" d="M76.468,138.249c-2.645,0-5.29,0.587-7.787,1.762C25.553,160.317,0,195.222,0,233.383v45.234
	c0,38.161,25.618,73.066,68.746,93.372c2.497,1.175,5.125,1.763,7.819,1.763L76.468,138.249z"/>
<path style="fill:#A67955;" d="M263.754,140.011c-4.993-2.35-10.579-2.35-15.573,0c-43.128,20.306-68.681,55.211-68.681,93.372
	v45.234c0,38.161,25.618,73.066,68.746,93.372c2.497,1.175,5.125,1.763,7.819,1.763s5.225-0.588,7.721-1.763
	c43.128-20.306,68.714-55.211,68.714-93.372v-45.234C332.5,195.222,306.882,160.317,263.754,140.011z"/>
<path style="fill:#DEA06D;" d="M255.968,138.249c-2.645,0-5.29,0.587-7.787,1.762c-43.128,20.306-68.681,55.211-68.681,93.372
	v45.234c0,38.161,25.618,73.066,68.746,93.372c2.497,1.175,5.125,1.763,7.819,1.763L255.968,138.249z"/>
<path style="fill:#A67955;" d="M443.254,140.011c-4.993-2.35-10.579-2.35-15.573,0C384.553,160.317,359,195.222,359,233.383v45.234
	c0,38.161,25.618,73.066,68.746,93.372c2.497,1.175,5.125,1.763,7.819,1.763s5.225-0.588,7.721-1.763
	C486.415,351.683,512,316.777,512,278.617v-45.234C512,195.222,486.382,160.317,443.254,140.011z"/>
<path style="fill:#DEA06D;" d="M435.468,138.249c-2.645,0-5.29,0.587-7.787,1.762C384.553,160.317,359,195.222,359,233.383v45.234
	c0,38.161,25.618,73.066,68.746,93.372c2.497,1.175,5.125,1.763,7.819,1.763L435.468,138.249z"/>
<g>
</g>
<g>
</g>
<g>
</g>
<g>
</g>
<g>
</g>
<g>
</g>
<g>
</g>
<g>
</g>
<g>
</g>
<g>
</g>
<g>
</g>
<g>
</g>
<g>
</g>
<g>
</g>
<g>
</g>
</svg>
