<?xml version="1.0" encoding="iso-8859-1"?>
<!-- Generator: Adobe Illustrator 19.0.0, SVG Export Plug-In . SVG Version: 6.00 Build 0)  -->
<svg version="1.1" id="Capa_1" xmlns="http://www.w3.org/2000/svg" xmlns:xlink="http://www.w3.org/1999/xlink" x="0px" y="0px"
	 viewBox="0 0 512 512" style="enable-background:new 0 0 512 512;" xml:space="preserve">
<path style="fill:#A9E570;" d="M52,151c-8.284,0-15,6.716-15,15v104c0,8.284,6.716,15,15,15s15-6.716,15-15V166
	C67,157.716,60.284,151,52,151z"/>
<g>
	<path style="fill:#6AC473;" d="M103,112c-8.284,0-15,6.716-15,15v143c0,8.284,6.716,15,15,15s15-6.716,15-15V127
		C118,118.716,111.284,112,103,112z"/>
	<path style="fill:#6AC473;" d="M205,112c-8.284,0-15,6.716-15,15v143c0,8.284,6.716,15,15,15s15-6.716,15-15V127
		C220,118.716,213.284,112,205,112z"/>
</g>
<g>
	<path style="fill:#57A15E;" d="M307,112c-8.284,0-15,6.716-15,15v143c0,8.284,6.716,15,15,15s15-6.716,15-15V127
		C322,118.716,315.284,112,307,112z"/>
	<path style="fill:#57A15E;" d="M409,112c-8.284,0-15,6.716-15,15v143c0,8.284,6.716,15,15,15s15-6.716,15-15V127
		C424,118.716,417.284,112,409,112z"/>
</g>
<g>
	<path style="fill:#A9E570;" d="M154,151c-8.284,0-15,6.716-15,15v104c0,8.284,6.716,15,15,15s15-6.716,15-15V166
		C169,157.716,162.284,151,154,151z"/>
	<path style="fill:#A9E570;" d="M256,151c-8.284,0-15,6.716-15,15v104c0,8.284,6.716,15,15,15s15-6.716,15-15V166
		C271,157.716,264.284,151,256,151z"/>
</g>
<g>
	<path style="fill:#6AC473;" d="M358,151c-8.284,0-15,6.716-15,15v104c0,8.284,6.716,15,15,15s15-6.716,15-15V166
		C373,157.716,366.284,151,358,151z"/>
	<path style="fill:#6AC473;" d="M460,151c-8.284,0-15,6.716-15,15v104c0,8.284,6.716,15,15,15s15-6.716,15-15V166
		C475,157.716,468.284,151,460,151z"/>
</g>
<path style="fill:#CFA05F;" d="M497,243H15c-8.284,0-15,6.208-15,14.492v96.514C0,378.819,20.187,400,45,400h422
	c24.813,0,45-21.181,45-45.994v-96.514C512,249.208,505.284,243,497,243z"/>
<path style="fill:#FACC8C;" d="M256.138,243H15c-8.284,0-15,6.208-15,14.492v96.514C0,378.819,20.187,400,45,400h211.138V243z"/>
<g>
</g>
<g>
</g>
<g>
</g>
<g>
</g>
<g>
</g>
<g>
</g>
<g>
</g>
<g>
</g>
<g>
</g>
<g>
</g>
<g>
</g>
<g>
</g>
<g>
</g>
<g>
</g>
<g>
</g>
</svg>
