<?xml version="1.0" encoding="iso-8859-1"?>
<!-- Generator: Adobe Illustrator 19.0.0, SVG Export Plug-In . SVG Version: 6.00 Build 0)  -->
<svg version="1.1" id="Capa_1" xmlns="http://www.w3.org/2000/svg" xmlns:xlink="http://www.w3.org/1999/xlink" x="0px" y="0px"
	 viewBox="0 0 512 512" style="enable-background:new 0 0 512 512;" xml:space="preserve">
<path style="fill:#6AC473;" d="M385.878,80.723c-1.517-4.143-4.782-7.407-8.924-8.924c-36.049-13.207-76.869-4.214-103.992,22.909
	s-36.116,67.942-22.91,103.992c0.759,2.072,1.954,3.923,3.478,5.447c1.523,1.523,3.376,2.719,5.447,3.478
	c36.05,13.207,76.87,4.214,103.993-22.909C390.092,157.592,399.085,116.773,385.878,80.723z"/>
<path style="fill:#A9E570;" d="M382.4,75.277c-1.524-1.524-3.376-2.719-5.447-3.478c-36.049-13.207-76.869-4.214-103.992,22.909
	s-36.116,67.942-22.91,103.992c0.759,2.072,1.954,3.923,3.478,5.447L382.4,75.277z"/>
<path style="fill:#4C8C51;" d="M327.921,129.756c-5.858-5.858-15.355-5.858-21.213,0l-59.559,59.559
	c0.809,3.155,1.768,6.289,2.902,9.386c0.759,2.072,1.954,3.923,3.478,5.447c1.523,1.523,3.376,2.719,5.447,3.478
	c3.097,1.134,6.231,2.093,9.386,2.903l59.559-59.559C333.779,145.111,333.779,135.613,327.921,129.756z"/>
<path style="fill:#57A15E;" d="M327.921,129.756c-5.858-5.858-15.355-5.858-21.213,0l-59.559,59.559
	c0.809,3.155,1.768,6.289,2.902,9.386c0.759,2.072,1.954,3.923,3.478,5.447L327.921,129.756z"/>
<path style="fill:#4C8C51;" d="M255.791,0c-8.284,0-15,6.716-15,15v330.054c0,8.284,6.716,15,15,15c8.284,0,15-6.716,15-15V15
	C270.791,6.716,264.076,0,255.791,0z"/>
<path style="fill:#A67955;" d="M341.329,368.051c-7.004-0.083-13.866,0.778-20.53,2.529c-17.998-15.638-40.692-24.147-64.867-24.147
	c-24.176,0-46.874,8.516-64.874,24.165c-6.461-1.68-12.993-2.551-19.691-2.551c-42.891,0-77.576,34.79-77.576,77.552v0.995
	c0,36.065,28.923,65.406,64.988,65.406h194.023c36.065,0,65.406-29.341,65.406-65.406C418.21,403.71,383.72,368.475,341.329,368.051
	z"/>
<path style="fill:#DEA06D;" d="M255.932,346.433c-24.176,0-46.874,8.516-64.874,24.165c-6.461-1.68-12.993-2.551-19.691-2.551
	c-42.891,0-77.576,34.79-77.576,77.552v0.995c0,36.065,28.923,65.406,64.988,65.406h97.012L255.932,346.433z"/>
<path style="fill:#6AC473;" d="M130.397,136.234c-4.143,1.517-7.407,4.782-8.924,8.924c-13.207,36.049-4.214,76.869,22.909,103.992
	s67.942,36.116,103.992,22.91c2.072-0.759,3.923-1.954,5.447-3.478c1.523-1.523,2.719-3.376,3.478-5.447
	c13.207-36.05,4.214-76.87-22.909-103.993C207.266,132.019,166.446,123.027,130.397,136.234z"/>
<path style="fill:#A9E570;" d="M124.95,139.712c-1.524,1.524-2.719,3.376-3.478,5.447c-13.207,36.049-4.214,76.869,22.909,103.992
	s67.942,36.116,103.992,22.91c2.072-0.759,3.923-1.954,5.447-3.478L124.95,139.712z"/>
<path style="fill:#4C8C51;" d="M179.429,194.191c-5.858,5.858-5.858,15.355,0,21.213l59.559,59.559
	c3.155-0.809,6.289-1.768,9.386-2.902c2.072-0.759,3.923-1.954,5.447-3.478c1.523-1.523,2.719-3.376,3.478-5.447
	c1.134-3.097,2.093-6.231,2.903-9.386l-59.559-59.559C194.784,188.333,185.287,188.333,179.429,194.191z"/>
<path style="fill:#57A15E;" d="M179.429,194.191c-5.858,5.858-5.858,15.355,0,21.213l59.559,59.559
	c3.155-0.809,6.289-1.768,9.386-2.902c2.072-0.759,3.923-1.954,5.447-3.478L179.429,194.191z"/>
<g>
</g>
<g>
</g>
<g>
</g>
<g>
</g>
<g>
</g>
<g>
</g>
<g>
</g>
<g>
</g>
<g>
</g>
<g>
</g>
<g>
</g>
<g>
</g>
<g>
</g>
<g>
</g>
<g>
</g>
</svg>
