<?xml version="1.0" encoding="iso-8859-1"?>
<!-- Generator: Adobe Illustrator 19.0.0, SVG Export Plug-In . SVG Version: 6.00 Build 0)  -->
<svg version="1.1" id="Capa_1" xmlns="http://www.w3.org/2000/svg" xmlns:xlink="http://www.w3.org/1999/xlink" x="0px" y="0px"
	 viewBox="0 0 512 512" style="enable-background:new 0 0 512 512;" xml:space="preserve">
<path style="fill:#6AC473;" d="M278.682,363.018c-16.153-34.829-51.375-57.334-89.733-57.334s-73.581,22.505-89.733,57.334
	c-1.856,4.002-1.856,8.619,0,12.621c16.152,34.83,51.375,57.335,89.733,57.335s73.58-22.505,89.733-57.334
	C280.538,371.637,280.538,367.02,278.682,363.018z"/>
<path style="fill:#A9E570;" d="M278.682,362.665c-1.441-3.108-3.041-6.37-4.775-9.37h-84.038c-8.284,0-15,6.716-15,15
	s6.716,15,15,15h84.419c1.585-2,3.06-5.308,4.394-8.184C280.538,371.109,280.538,366.668,278.682,362.665z"/>
<path style="fill:#57A15E;" d="M280.074,221.076c-8.284,0-15,6.716-15,15V497c0,8.284,6.716,15,15,15s15-6.716,15-15V236.076
	C295.074,227.792,288.358,221.076,280.074,221.076z"/>
<path style="fill:#FFC77D;" d="M406.038,1.713c-4.997-2.571-11.011-2.134-15.583,1.133l-50.438,36.033L288.713,2.738
	c-5.181-3.65-12.097-3.65-17.277,0l-51.302,36.14L169.696,2.826c-4.572-3.267-10.586-3.706-15.584-1.136
	c-4.997,2.571-8.138,7.719-8.138,13.339v103.838c0,35.691,14.05,69.057,39.562,93.951c25.282,24.67,58.929,38.257,94.744,38.257
	h0.87c35.777,0,69.226-13.614,94.185-38.335c25.047-24.809,38.841-58.146,38.841-93.873V15.05
	C414.174,9.432,411.034,4.285,406.038,1.713z"/>
<path style="fill:#FFE57D;" d="M280.074,0.004c-3.024-0.002-6.048,0.908-8.639,2.734l-51.302,36.14L169.696,2.826
	c-4.572-3.267-10.586-3.706-15.584-1.136c-4.997,2.571-8.138,7.719-8.138,13.339v103.838c0,35.691,14.05,69.057,39.562,93.951
	c25.234,24.623,58.801,38.205,94.539,38.257L280.074,0.004z"/>
<g>
</g>
<g>
</g>
<g>
</g>
<g>
</g>
<g>
</g>
<g>
</g>
<g>
</g>
<g>
</g>
<g>
</g>
<g>
</g>
<g>
</g>
<g>
</g>
<g>
</g>
<g>
</g>
<g>
</g>
</svg>
