<?xml version="1.0" encoding="iso-8859-1"?>
<!-- Generator: Adobe Illustrator 19.0.0, SVG Export Plug-In . SVG Version: 6.00 Build 0)  -->
<svg version="1.1" id="Capa_1" xmlns="http://www.w3.org/2000/svg" xmlns:xlink="http://www.w3.org/1999/xlink" x="0px" y="0px"
	 viewBox="0 0 511.999 511.999" style="enable-background:new 0 0 511.999 511.999;" xml:space="preserve">
<path style="fill:#6AC473;" d="M256.001,217.982c-8.284,0-15,6.716-15,15v98.647c0,8.284,6.716,15,15,15s15-6.716,15-15v-98.647
	C271.001,224.698,264.285,217.982,256.001,217.982z"/>
<path style="fill:#CFA05F;" d="M363.745,328.081c-2.848-3.23-6.946-5.081-11.253-5.081h-192.98c-4.307,0-8.405,1.851-11.253,5.081
	c-2.847,3.23-4.169,7.529-3.629,11.801l16.781,132.652c2.848,22.499,22.05,39.465,44.666,39.465h99.85
	c22.616,0,41.818-16.966,44.667-39.467l16.78-132.651C367.913,335.61,366.591,331.312,363.745,328.081z"/>
<path style="fill:#FACC8C;" d="M256.025,323h-96.514c-4.307,0-8.405,1.851-11.253,5.081c-2.847,3.23-4.169,7.529-3.629,11.801
	l16.781,132.652c2.848,22.499,22.05,39.465,44.666,39.465h49.949V323z"/>
<path style="fill:#A67955;" d="M376.363,323H135.639c-8.284,0-15,6.716-15,15s6.716,15,15,15h240.725c8.284,0,15-6.716,15-15
	S384.647,323,376.363,323z"/>
<path style="fill:#DEA06D;" d="M256.001,323H135.639c-8.284,0-15,6.716-15,15s6.716,15,15,15h120.362V323z"/>
<path style="fill:#CEE8F0;" d="M357.133,101.204h-0.944l0.836-0.952c7.78-7.781,12.064-18.184,12.064-29.189
	s-4.284-21.379-12.064-29.16l-0.318-0.333c-7.779-7.782-18.122-12.074-29.124-12.074c-11.002,0-21.367,4.282-29.146,12.063
	L297.17,42.8v-1.761C297.169,18.322,278.736,0,256.025,0h-0.451c-22.711,0-40.741,18.322-40.741,41.039v1.182l-0.892-0.669
	c-16.058-16.06-42.298-16.06-58.363,0.007l-0.371,0.315c-16.057,16.062-16.085,42.313-0.028,58.375l0.811,0.955h-1.524
	c-22.71,0-40.837,18.249-40.837,40.964v0.453c0,22.716,18.127,40.918,40.837,40.918h1.762l-1.075,1.214
	c-7.78,7.782-12.064,18.197-12.063,29.201c0,11.004,4.285,21.384,12.064,29.165l0.318,0.336
	c7.779,7.782,18.122,12.075,29.123,12.075s21.567-4.281,29.347-12.062l0.891-0.663v0.945c0,22.716,18.03,40.992,40.741,40.992h0.451
	c22.711,0,41.143-18.276,41.143-40.992v-1.523l1.267,1.246c7.779,7.782,18.133,12.067,29.134,12.067s21.35-4.285,29.129-12.067
	l0.321-0.318c7.78-7.781,12.065-18.127,12.065-29.131s-4.284-21.489-12.063-29.269l-1.076-1.216h1.184
	c22.711,0,41.24-18.203,41.24-40.919v-0.451C398.372,119.453,379.842,101.204,357.133,101.204z"/>
<path style="fill:#EBF6FA;" d="M256.025,0h-0.451c-22.711,0-40.741,18.322-40.741,41.039v1.182l-0.892-0.669
	c-16.058-16.06-42.298-16.06-58.363,0.007l-0.371,0.315c-16.057,16.062-16.085,42.313-0.028,58.375l0.811,0.955h-1.524
	c-22.71,0-40.837,18.249-40.837,40.964v0.453c0,22.716,18.127,40.918,40.837,40.918h1.762l-1.075,1.214
	c-7.78,7.782-12.064,18.197-12.063,29.201c0,11.004,4.285,21.384,12.064,29.165l0.318,0.336
	c7.779,7.782,18.122,12.075,29.123,12.075s21.567-4.281,29.347-12.062l0.891-0.663v0.945c0,22.716,18.03,40.992,40.741,40.992h0.451
	C255.576,284.742,255.576,0,256.025,0z"/>
<path style="fill:#FFC77D;" d="M256.001,69.119c-40.62,0-73.667,33.054-73.667,73.683c0,40.63,33.047,73.686,73.667,73.686
	s73.667-33.055,73.667-73.686C329.668,102.173,296.621,69.119,256.001,69.119z"/>
<path style="fill:#FFE57D;" d="M256.001,69.119c-40.62,0-73.667,33.054-73.667,73.683c0,40.63,33.047,73.686,73.667,73.686V69.119z"
	/>
<g>
</g>
<g>
</g>
<g>
</g>
<g>
</g>
<g>
</g>
<g>
</g>
<g>
</g>
<g>
</g>
<g>
</g>
<g>
</g>
<g>
</g>
<g>
</g>
<g>
</g>
<g>
</g>
<g>
</g>
</svg>
