<?xml version="1.0" encoding="iso-8859-1"?>
<!-- Generator: Adobe Illustrator 19.0.0, SVG Export Plug-In . SVG Version: 6.00 Build 0)  -->
<svg version="1.1" id="Capa_1" xmlns="http://www.w3.org/2000/svg" xmlns:xlink="http://www.w3.org/1999/xlink" x="0px" y="0px"
	 viewBox="0 0 512.001 512.001" style="enable-background:new 0 0 512.001 512.001;" xml:space="preserve">
<path style="fill:#6AC473;" d="M87.569,400.637c-1.858,4.006-1.858,8.628,0,12.634c16.168,34.866,51.427,57.393,89.825,57.393
	s73.655-22.528,89.825-57.393c0.929-2.003,1.393-4.16,1.393-6.317c0-2.156-0.464-4.314-1.393-6.317
	c-16.168-34.866-51.427-57.393-89.825-57.393C138.995,343.244,103.737,365.772,87.569,400.637z"/>
<path style="fill:#A9E570;" d="M86.174,406.954c0,2.157,0.464,4.314,1.393,6.317c16.168,34.866,51.427,57.393,89.825,57.393
	s73.655-22.528,89.825-57.393c0.929-2.003,1.393-4.16,1.393-6.317L86.174,406.954z"/>
<path style="fill:#4C8C51;" d="M163.298,406.955c0,8.292,6.723,15.015,15.015,15.015h84.315c1.661-2.806,3.2-5.703,4.589-8.698
	c0.929-2.003,1.393-4.16,1.393-6.317c0-2.156-0.464-4.314-1.393-6.317c-1.389-2.995-2.929-5.892-4.59-8.698h-84.314
	C170.021,391.94,163.298,398.661,163.298,406.955z"/>
<path style="fill:#57A15E;" d="M163.298,406.955c0,8.292,6.723,15.015,15.015,15.015h84.315c1.661-2.806,3.2-5.703,4.589-8.698
	c0.929-2.003,1.393-4.16,1.393-6.317H163.298z"/>
<path style="fill:#4C8C51;" d="M260.118,222.151c-8.292,0-15.015,6.724-15.015,15.019v259.811c0,8.294,6.723,15.019,15.015,15.019
	s15.015-6.724,15.015-15.019V237.17C275.133,228.875,268.41,222.151,260.118,222.151z"/>
<path style="fill:#EBF6FA;" d="M142.944,48.535c8.656-8.656,20.63-13.153,32.838-12.331c12.213,0.82,23.475,6.873,30.896,16.608
	l68.362,89.671c2.947,3.866,2.582,9.315-0.856,12.752l-24.54,24.54c-1.883,1.883-4.368,2.844-6.868,2.844
	c-2.063,0-4.135-0.656-5.884-1.988l-89.671-68.362c-9.735-7.422-15.788-18.683-16.608-30.896
	C129.794,69.16,134.288,57.19,142.944,48.535z"/>
<g>
	<path style="fill:#CEE8F0;" d="M142.944,48.535c8.656-8.656,20.63-13.153,32.838-12.331c12.213,0.82,23.475,6.873,30.896,16.608
		l68.362,89.671c2.947,3.866,2.582,9.315-0.856,12.752l-14.067,14.067L142.944,48.535z"/>
	<path style="fill:#CEE8F0;" d="M292.057,14.502C284,5.285,272.359,0,260.118,0s-23.882,5.285-31.94,14.502
		c-8.056,9.215-11.739,21.459-10.103,33.59l15.068,111.746c0.65,4.818,4.761,8.412,9.622,8.412h34.705
		c4.861,0,8.973-3.595,9.622-8.412l15.068-111.746C303.796,35.961,300.113,23.717,292.057,14.502z"/>
</g>
<path style="fill:#EBF6FA;" d="M260.118,0c-12.241,0-23.882,5.285-31.94,14.502c-8.056,9.215-11.739,21.459-10.103,33.59
	l15.068,111.746c0.65,4.818,4.761,8.412,9.622,8.412h17.353V0z"/>
<g>
	<path style="fill:#CEE8F0;" d="M377.291,48.535c-8.656-8.656-20.63-13.153-32.838-12.331c-12.213,0.82-23.475,6.873-30.896,16.608
		l-68.362,89.671c-2.947,3.866-2.582,9.315,0.856,12.752l24.54,24.54c1.883,1.883,4.369,2.844,6.868,2.844
		c2.063,0,4.135-0.656,5.884-1.988l89.671-68.362c9.735-7.422,15.788-18.683,16.608-30.896
		C390.442,69.16,385.947,57.19,377.291,48.535z"/>
	<path style="fill:#CEE8F0;" d="M411.325,197.648c9.216-8.057,14.502-19.698,14.502-31.94s-5.285-23.882-14.502-31.94
		c-9.215-8.056-21.459-11.739-33.59-10.103l-111.746,15.068c-4.818,0.65-8.412,4.761-8.412,9.622v34.705
		c0,4.861,3.595,8.973,8.412,9.622l111.746,15.068C389.865,209.387,402.108,205.705,411.325,197.648z"/>
	<path style="fill:#CEE8F0;" d="M377.291,282.882c-8.656,8.656-20.63,13.153-32.838,12.331c-12.213-0.82-23.475-6.873-30.896-16.608
		l-68.362-89.671c-2.947-3.866-2.582-9.316,0.856-12.752l24.54-24.54c1.883-1.883,4.369-2.844,6.868-2.844
		c2.063,0,4.135,0.656,5.884,1.988l89.671,68.362c9.735,7.422,15.788,18.683,16.608,30.897
		C390.442,262.257,385.947,274.227,377.291,282.882z"/>
</g>
<g>
	<path style="fill:#EBF6FA;" d="M377.291,282.882c-8.656,8.656-20.63,13.153-32.838,12.331c-12.213-0.82-23.475-6.873-30.896-16.608
		l-68.362-89.671c-2.947-3.866-2.582-9.316,0.856-12.752l14.067-14.067L377.291,282.882z"/>
	<path style="fill:#EBF6FA;" d="M228.178,316.915c8.057,9.216,19.698,14.502,31.94,14.502c12.241,0,23.882-5.285,31.94-14.502
		c8.056-9.215,11.739-21.459,10.103-33.59l-15.068-111.746c-0.65-4.818-4.761-8.412-9.622-8.412h-34.705
		c-4.861,0-8.973,3.595-9.622,8.412l-15.068,111.746C216.439,295.456,220.122,307.7,228.178,316.915z"/>
</g>
<path style="fill:#CEE8F0;" d="M260.118,331.417c12.241,0,23.882-5.285,31.94-14.502c8.056-9.215,11.739-21.459,10.103-33.59
	l-15.068-111.746c-0.65-4.818-4.761-8.412-9.622-8.412h-17.353V331.417z"/>
<path style="fill:#EBF6FA;" d="M142.944,282.882c8.656,8.656,20.63,13.153,32.838,12.331c12.213-0.82,23.475-6.873,30.896-16.608
	l68.362-89.671c2.947-3.866,2.582-9.316-0.856-12.752l-24.54-24.54c-1.883-1.883-4.368-2.844-6.868-2.844
	c-2.063,0-4.135,0.656-5.884,1.988l-89.671,68.362c-9.735,7.422-15.788,18.683-16.608,30.897
	C129.794,262.257,134.288,274.227,142.944,282.882z"/>
<path style="fill:#CEE8F0;" d="M142.944,282.882c8.656,8.656,20.63,13.153,32.838,12.331c12.213-0.82,23.475-6.873,30.896-16.608
	l68.362-89.671c2.947-3.866,2.582-9.316-0.856-12.752l-14.067-14.067L142.944,282.882z"/>
<path style="fill:#EBF6FA;" d="M425.826,165.708c0-12.241-5.285-23.882-14.502-31.94c-9.215-8.056-21.459-11.739-33.59-10.103
	l-111.746,15.068c-4.818,0.65-8.412,4.761-8.412,9.622v17.353H425.826z"/>
<path style="fill:#CEE8F0;" d="M108.911,133.769c-9.216,8.057-14.502,19.698-14.502,31.94s5.285,23.882,14.502,31.94
	c9.215,8.056,21.459,11.739,33.59,10.103l111.746-15.068c4.818-0.65,8.412-4.761,8.412-9.622v-34.705
	c0-4.861-3.595-8.973-8.412-9.622l-111.745-15.068C130.37,122.029,118.127,125.712,108.911,133.769z"/>
<g>
	<path style="fill:#EBF6FA;" d="M94.41,165.708c0,12.241,5.285,23.882,14.502,31.94c9.215,8.056,21.459,11.739,33.59,10.103
		l111.746-15.068c4.818-0.65,8.412-4.761,8.412-9.622v-17.353H94.41z"/>
	<path style="fill:#EBF6FA;" d="M377.291,48.535c-8.656-8.656-20.63-13.153-32.838-12.331c-12.213,0.82-23.475,6.873-30.896,16.608
		l-68.362,89.671c-2.947,3.866-2.582,9.315,0.856,12.752l14.067,14.067L377.291,48.535z"/>
</g>
<path style="fill:#FFC77D;" d="M260.118,80.449c-47.278,0-85.742,38.472-85.742,85.761c0,47.29,38.464,85.764,85.742,85.764
	s85.742-38.473,85.742-85.764C345.86,118.921,307.396,80.449,260.118,80.449z"/>
<path style="fill:#FFE57D;" d="M260.118,80.449c-47.278,0-85.742,38.472-85.742,85.761c0,47.29,38.464,85.764,85.742,85.764V80.449z
	"/>
<g>
</g>
<g>
</g>
<g>
</g>
<g>
</g>
<g>
</g>
<g>
</g>
<g>
</g>
<g>
</g>
<g>
</g>
<g>
</g>
<g>
</g>
<g>
</g>
<g>
</g>
<g>
</g>
<g>
</g>
</svg>
